<svg width="232" height="230" viewBox="0 0 232 230" fill="none" xmlns="http://www.w3.org/2000/svg">
<path d="M109.168 1.46522C120.917 3.42843 129.346 11.3353 136.779 18.3116C140.759 22.046 144.524 25.5761 148.546 28.1097C157.636 33.8312 165.741 36.0046 173.582 38.1059C186.255 41.498 199.361 45.0102 213.464 62.7512C227.663 80.6182 232.988 97.6267 229.74 114.749C226.558 131.542 215.223 146.059 205.707 156.823C199.5 163.854 195.159 172.553 190.572 181.763C186.58 189.772 182.455 198.051 176.86 205.562C162.505 224.815 148.528 231.726 130.127 228.652C123.03 227.469 115.736 224.917 108.015 222.216C101.189 219.832 94.1344 217.365 86.2275 215.426C85.465 215.24 84.6545 215.071 83.826 214.933C79.8035 214.261 75.5649 214.243 71.0861 214.219C66.3011 214.195 61.3601 214.171 56.335 213.33C50.3192 212.328 45.1441 210.28 40.5272 207.08C26.2504 197.192 24.9416 185.899 23.6748 174.985C23.1585 170.536 22.6241 165.943 21.2013 161.17C19.3821 155.082 16.1041 149.469 12.6339 143.519C7.32666 134.43 1.83926 125.028 1.29292 113.206C0.242267 90.4523 15.1795 77.8145 26.5025 70.2858C30.1348 67.8663 33.713 65.9631 37.1711 64.12C44.3636 60.2896 50.5714 56.9816 54.6479 50.3115C55.8667 48.3182 56.5151 44.9021 57.1395 41.6001C57.8899 37.6376 58.6704 33.5371 60.5856 29.8508C67.5139 16.4985 82.6673 2.43181 100.901 1.08698C103.71 0.894864 106.49 1.02094 109.168 1.46522Z" stroke="url(#paint0_linear_23_228)" stroke-miterlimit="10" stroke-dasharray="25 25"/>
<path d="M208.763 66.4854C187.48 39.7089 170.273 48.8886 145.346 33.1949C131.141 24.2553 121.319 5.62578 101.339 7.0907C86.3116 8.19537 72.6471 19.6505 65.9109 32.6305C62.765 38.6943 63.1973 47.8379 59.7691 53.4514C52.6908 65.0326 41.0075 67.8603 29.8226 75.2929C16.9326 83.8662 6.45613 94.871 7.29063 112.936C8.10114 130.557 22.0598 143.045 26.9588 159.459C32.086 176.642 26.5746 190.114 43.9493 202.157C57.7699 211.733 73.2955 206.078 87.6624 209.602C124.387 218.602 144.452 239.002 172.051 201.977C183.596 186.488 188.813 166.886 201.217 152.855C223.262 127.897 236.999 102.009 208.763 66.4854Z" fill="url(#paint1_linear_23_228)"/>
<path d="M116 54.6144L148 106.602L180 158.591H116H52L83.9999 106.602L116 54.6144Z" fill="#F2B643"/>
<path d="M110.738 136.58L113.437 133.657V158.59H116V121.862L110.738 136.58Z" fill="#D89932"/>
<path d="M116 54.6144V158.591H180L116 54.6144Z" fill="#5A47AB"/>
<path d="M116 54.6144L52.0005 158.591H101.708C101.708 158.591 121.938 112.784 122.027 96.941C122.116 81.0985 116 54.6144 116 54.6144Z" fill="#5A47AB"/>
<path opacity="0.5" d="M120.064 108.724C114.968 128.564 101.707 158.59 101.707 158.59L93.9077 150.559L120.064 108.724Z" fill="#AF496B"/>
<path d="M158.986 158.59L136.075 108.724L147.53 158.59H158.986Z" fill="#39229A"/>
<path d="M69.0483 158.591H77.0914L99.2716 99.8655L69.0483 158.591Z" fill="#39229A"/>
<path d="M116 129.228C116 129.228 125.96 113.759 123.583 93.8942C122.234 82.6173 116 54.6146 116 54.6146C116 54.6146 122.117 81.0984 122.027 96.9409C121.995 102.586 119.406 112.036 116.087 121.862L116 129.228Z" fill="#39229A"/>
<path d="M52 158.591H55.8649L116 54.6144L52 158.591Z" fill="#39229A"/>
<path d="M180 158.591H176.136L116 54.6144L180 158.591Z" fill="#39229A"/>
<defs>
<linearGradient id="paint0_linear_23_228" x1="178.806" y1="209.527" x2="50.1728" y2="29.3656" gradientUnits="userSpaceOnUse">
<stop stop-color="#FCEE21"/>
<stop offset="1" stop-color="#00A99D"/>
</linearGradient>
<linearGradient id="paint1_linear_23_228" x1="174.487" y1="203.474" x2="52.8604" y2="33.1256" gradientUnits="userSpaceOnUse">
<stop stop-color="#D9BFBF"/>
<stop offset="1" stop-color="#7C4EFF"/>
</linearGradient>
</defs>
</svg>
