<svg width="232" height="230" viewBox="0 0 232 230" fill="none" xmlns="http://www.w3.org/2000/svg">
<path d="M122.712 228.888C110.962 226.925 102.533 219.018 95.1006 212.042C91.1202 208.307 87.3558 204.777 83.3334 202.244C74.2437 196.522 66.1387 194.349 58.2979 192.247C45.624 188.855 32.5179 185.343 18.4152 167.602C4.21639 149.735 -1.10889 132.726 2.13912 115.604C5.32109 98.8115 16.6561 84.2945 26.172 73.5299C32.3798 66.4995 36.7205 57.8001 41.3073 48.5904C45.2998 40.5815 49.4244 32.3023 55.0198 24.7917C69.3747 5.53779 83.3514 -1.37249 101.753 1.70141C108.849 2.88414 116.144 5.43572 123.864 8.13739C130.691 10.5209 137.745 12.9884 145.652 14.9276C146.414 15.1137 147.225 15.2818 148.053 15.4199C152.076 16.0923 156.315 16.1103 160.793 16.1343C165.578 16.1583 170.519 16.1824 175.544 17.0229C181.56 18.0255 186.735 20.0728 191.352 23.2728C205.629 33.1609 206.938 44.4539 208.205 55.3686C208.721 59.8174 209.255 64.4102 210.678 69.1832C212.497 75.2709 215.775 80.8844 219.245 86.8341C224.553 95.9237 230.04 105.326 230.586 117.147C231.637 139.901 216.7 152.539 205.377 160.067C201.745 162.487 198.166 164.39 194.708 166.233C187.516 170.064 181.308 173.372 177.231 180.042C176.013 182.035 175.364 185.451 174.74 188.753C173.989 192.716 173.209 196.816 171.294 200.502C164.365 213.855 149.212 227.921 130.979 229.266C128.169 229.458 125.389 229.332 122.712 228.888Z" stroke="url(#paint0_linear_23_249)" stroke-miterlimit="10" stroke-dasharray="25 25"/>
<path d="M23.1161 163.868C44.3993 190.644 61.6059 181.465 86.5333 197.158C100.738 206.098 110.56 224.727 130.541 223.263C145.568 222.158 159.232 210.703 165.968 197.723C169.114 191.659 168.682 182.515 172.11 176.902C179.189 165.321 190.872 162.493 202.057 155.06C214.947 146.487 225.423 135.482 224.589 117.417C223.778 99.7961 209.82 87.3084 204.921 70.8942C199.793 53.7116 205.305 40.2393 187.93 28.1958C174.11 18.6199 158.584 24.2754 144.217 20.7512C107.492 11.7516 87.4279 -8.64897 59.8288 28.3759C48.2836 43.8655 43.0664 63.4676 30.6627 77.4983C8.6171 102.456 -5.11939 128.344 23.1161 163.868Z" fill="url(#paint1_linear_23_249)"/>
<path d="M161.618 92.0412L161.506 132.082C161.489 137.86 157.691 143.631 150.104 148.04C134.829 156.917 109.986 156.917 94.6112 148.04C86.8758 143.574 83.0124 137.712 83.0294 131.858L83.1428 91.8174C83.1259 97.6714 86.9893 103.534 94.7246 108C110.099 116.876 134.943 116.876 150.218 107.999C157.804 103.59 161.602 97.8199 161.618 92.0412Z" fill="url(#paint2_linear_23_249)"/>
<path d="M150.218 107.999C142.594 112.429 132.586 114.648 122.561 114.656V154.695C132.548 154.67 142.509 152.454 150.105 148.04C157.691 143.631 161.489 137.86 161.506 132.082L161.619 92.041C161.603 97.8197 157.804 103.59 150.218 107.999Z" fill="url(#paint3_linear_23_249)"/>
<path d="M196.429 95.4178L122.571 138.341L48.228 95.4188L122.087 52.4968L196.429 95.4178Z" fill="#6363A5"/>
<path d="M122.571 138.341L122.561 141.622L48.2183 98.7013L48.2278 95.4191L122.571 138.341Z" fill="url(#paint4_linear_23_249)"/>
<path d="M162.77 157.553C164.392 158.489 164.405 160.011 162.796 160.948C161.178 161.887 158.551 161.883 156.93 160.948C155.308 160.011 155.3 158.492 156.917 157.553C158.527 156.617 161.15 156.617 162.77 157.553Z" fill="#FBD15B"/>
<path d="M155.709 159.251L157.422 150.855L162.271 150.734L163.994 159.251H155.709Z" fill="#FBD15B"/>
<path d="M162.281 146.914L162.271 150.734C162.269 151.091 162.035 151.448 161.567 151.72C160.62 152.27 159.079 152.268 158.127 151.72C157.649 151.444 157.411 151.082 157.412 150.719L157.422 146.899C157.421 147.262 157.661 147.623 158.138 147.9C159.089 148.448 160.63 148.451 161.578 147.9C162.046 147.628 162.28 147.271 162.281 146.914Z" fill="#DDA35E"/>
<path d="M161.563 145.909C162.515 146.458 162.523 147.351 161.578 147.9C160.63 148.45 159.089 148.448 158.138 147.9C157.187 147.351 157.183 146.46 158.131 145.909C159.075 145.36 160.613 145.36 161.563 145.909Z" fill="#FBD15B"/>
<path d="M159.754 147.745C159.332 147.725 158.918 147.62 158.596 147.435C158.248 147.233 158.068 146.981 158.052 146.718V146.589L157.936 113.812L159.639 114.803L159.754 147.745Z" fill="#DDA35E"/>
<path d="M161.755 146.643V146.731C161.74 146.984 161.559 147.242 161.22 147.435C160.818 147.668 160.278 147.77 159.754 147.745L159.639 114.803C159.634 114.167 160.085 113.393 160.632 113.075C160.798 112.983 160.951 112.938 161.087 112.938L161.192 112.95H161.205L161.286 112.979L161.309 112.987L161.333 112.999C161.522 113.1 161.636 113.326 161.64 113.647L161.755 146.643Z" fill="#FBD15B"/>
<path d="M122.275 92.5538L122.279 94.5231L159.209 115.984L159.204 114.014L122.275 92.5538Z" fill="#DDA35E"/>
<path d="M161.618 115.403L161.613 113.433C161.613 113.643 161.474 113.854 161.197 114.014C160.644 114.334 159.752 114.334 159.204 114.014L159.209 115.984C159.758 116.303 160.649 116.303 161.203 115.984C161.481 115.824 161.619 115.612 161.618 115.403Z" fill="#FBD15B"/>
<path d="M122.28 91.399C121.728 91.7182 121.727 92.2357 122.275 92.5538L159.204 114.014C159.752 114.334 160.644 114.334 161.197 114.014C161.749 113.695 161.752 113.18 161.204 112.86L124.274 91.399C123.727 91.0808 122.833 91.0797 122.28 91.399Z" fill="#FBD15B"/>
<defs>
<linearGradient id="paint0_linear_23_249" x1="53.0733" y1="20.8259" x2="181.707" y2="200.988" gradientUnits="userSpaceOnUse">
<stop stop-color="#FCEE21"/>
<stop offset="1" stop-color="#00A99D"/>
</linearGradient>
<linearGradient id="paint1_linear_23_249" x1="57.3922" y1="26.879" x2="179.019" y2="197.228" gradientUnits="userSpaceOnUse">
<stop stop-color="#E48EE6"/>
<stop offset="1" stop-color="#00A99D"/>
</linearGradient>
<linearGradient id="paint2_linear_23_249" x1="122.323" y1="91.8174" x2="122.323" y2="154.697" gradientUnits="userSpaceOnUse">
<stop stop-color="#56548C"/>
<stop offset="1" stop-color="#444477"/>
</linearGradient>
<linearGradient id="paint3_linear_23_249" x1="142.09" y1="92.041" x2="142.09" y2="154.695" gradientUnits="userSpaceOnUse">
<stop stop-color="#444477"/>
<stop offset="0.37792" stop-color="#444477"/>
<stop offset="1" stop-color="#2F2F68"/>
</linearGradient>
<linearGradient id="paint4_linear_23_249" x1="85.3944" y1="95.4191" x2="85.3944" y2="141.622" gradientUnits="userSpaceOnUse">
<stop stop-color="#444477"/>
<stop offset="0.37792" stop-color="#444477"/>
<stop offset="1" stop-color="#2F2F68"/>
</linearGradient>
</defs>
</svg>
